<svg width="89.89999999999999" height="80" xmlns="http://www.w3.org/2000/svg">

 <g>
  <title>Layer 1</title>
  <path id="svg_1" fill="#809580" d="m24.7,74.1l2.1,0l0,5.7l1.2,0l0,-5.7l2.1,0l0,-1l-5.4,0l0,1zm-16,2.7l3.4,0l0,-0.9l-3.4,0l0,-1.8l3.7,0l0,-1l-4.9,0l0,6.7l4.9,0l0,-1l-3.7,0l0,-2zm-4.5,-1l-3,0l0,-2.7l-1.2,0l0,6.7l1.2,0l0,-3l3.1,0l0,3l1.2,0l0,-6.7l-1.3,0l0,2.7zm11.5,-2.7l-2.6,6.7l1.2,0l0.7,-1.8l2.7,0l0.7,1.8l1.2,0l-2.6,-6.7l-1.3,0zm-0.4,4.1l1,-2.9l1,2.9l-2,0zm6.5,-4.1l-1.2,0l0,6.7l4.6,0l0,-1l-3.4,0l0,-5.7zm13.8,2.7l-3.1,0l0,-2.7l-1.2,0l0,6.7l1.2,0l0,-3l3.1,0l0,3l1.2,0l0,-6.7l-1.2,0l0,2.7zm42.1,-1.7l2.1,0l0,5.7l1.2,0l0,-5.7l2.1,0l0,-1l-5.4,0l0,1zm-31.2,2.5l-0.9,0c0,0.4 -0.1,0.7 -0.2,0.9l-1,-1.2c0.7,-0.3 1.2,-0.9 1.2,-1.7c0,-1.1 -0.8,-1.6 -1.7,-1.6s-1.7,0.7 -1.7,1.6c0,0.6 0.3,1 0.7,1.5c-0.8,0.4 -1.5,1 -1.5,1.9c0,1.3 0.9,2 2.1,2c0.8,0 1.4,-0.3 1.9,-0.9l0.6,0.7l1.3,0l-1.3,-1.5c0.3,-0.5 0.5,-1.1 0.5,-1.7zm-2.6,-2.8c0.4,0 0.7,0.3 0.7,0.8s-0.4,0.8 -0.8,1.1c-0.2,-0.3 -0.6,-0.7 -0.6,-1.1c0,-0.5 0.3,-0.8 0.7,-0.8zm-0.4,5.3c-0.6,0 -1.1,-0.4 -1.1,-1.1c0,-0.8 0.6,-1 1,-1.3l1.3,1.7c-0.1,0.3 -0.4,0.7 -1.2,0.7zm45,-6l-1.7,3l-1.8,-3l-1.3,0l2.5,4.1l0,2.7l1.2,0l0,-2.7l2.5,-4.1l-1.4,0zm-13,3.9c0,0.9 0,1.9 -1.6,1.9c-1.5,0 -1.6,-1 -1.6,-1.9l0,-3.9l-1.2,0l0,4.3c0,1.7 1.1,2.6 2.8,2.6s2.7,-0.9 2.7,-2.6l0,-4.3l-1.2,0l0,3.9l0.1,0zm-19.9,-0.8c0.6,-0.3 1,-0.8 1,-1.4c0,-1.1 -0.8,-1.7 -2,-1.7l-3.3,0l0,6.7l3.1,0c1.7,0 2.5,-0.8 2.5,-1.9c-0.1,-0.8 -0.5,-1.5 -1.3,-1.7zm-3.1,-2.1l1.9,0c0.6,0 1,0.3 1,0.9s-0.4,0.9 -1,0.9l-1.9,0l0,-1.8zm2,4.8l-2.1,0l0,-2.1l2.1,0c0.7,0 1.1,0.4 1.1,1c0.1,0.7 -0.3,1.1 -1.1,1.1zm12,-5.8l-2.6,6.7l1.2,0l0.7,-1.8l2.7,0l0.6,1.8l1.2,0l-2.6,-6.7l-1.2,0zm-0.4,4.1l1,-2.9l1,2.9l-2,0zm-6.6,-0.4l3.4,0l0,-0.9l-3.4,0l0,-1.8l3.7,0l0,-1l-4.8,0l0,6.7l4.9,0l0,-1l-3.7,0l0,-2l-0.1,0zm-2.3,-23.7l-31.7,0l0,-53.1l-7.2,0l0,59.4l41.7,0l-2.8,-6.3zm-18.6,-20.4l15.9,0l11.5,26.7l7.5,0l-12.1,-28.5c6.7,-1.8 10.7,-8 10.7,-14.7c0,-4.8 -2.2,-9.6 -6.1,-12.5c-3.8,-2.9 -8.4,-3.5 -13,-3.5l-21.5,0l0,47.6l7.2,0l0,-15.1l-0.1,0zm0,-26.4l14.4,0c3,0 5.4,0.1 7.9,1.8c2.8,1.8 4,4.6 4,8c0,2.8 -0.9,5.5 -2.9,7.5c-2.8,2.9 -6,3.2 -9.9,3.2l-13.5,0l0,-20.5z"/>
  <rect id="svg_2" height="7.49985" width="89.49819" y="72.49934" x="0.20091" fill="#809580"/>
 </g>
</svg>